%TF.GenerationSoftware,KiCad,Pcbnew,9.0.7*%
%TF.CreationDate,2026-02-20T13:28:10+01:00*%
%TF.ProjectId,hexa blinky,68657861-2062-46c6-996e-6b792e6b6963,rev?*%
%TF.SameCoordinates,Original*%
%TF.FileFunction,Copper,L1,Top*%
%TF.FilePolarity,Positive*%
%FSLAX46Y46*%
G04 Gerber Fmt 4.6, Leading zero omitted, Abs format (unit mm)*
G04 Created by KiCad (PCBNEW 9.0.7) date 2026-02-20 13:28:10*
%MOMM*%
%LPD*%
G01*
G04 APERTURE LIST*
G04 Aperture macros list*
%AMRoundRect*
0 Rectangle with rounded corners*
0 $1 Rounding radius*
0 $2 $3 $4 $5 $6 $7 $8 $9 X,Y pos of 4 corners*
0 Add a 4 corners polygon primitive as box body*
4,1,4,$2,$3,$4,$5,$6,$7,$8,$9,$2,$3,0*
0 Add four circle primitives for the rounded corners*
1,1,$1+$1,$2,$3*
1,1,$1+$1,$4,$5*
1,1,$1+$1,$6,$7*
1,1,$1+$1,$8,$9*
0 Add four rect primitives between the rounded corners*
20,1,$1+$1,$2,$3,$4,$5,0*
20,1,$1+$1,$4,$5,$6,$7,0*
20,1,$1+$1,$6,$7,$8,$9,0*
20,1,$1+$1,$8,$9,$2,$3,0*%
G04 Aperture macros list end*
%TA.AperFunction,ComponentPad*%
%ADD10RoundRect,0.250000X-0.550000X0.550000X-0.550000X-0.550000X0.550000X-0.550000X0.550000X0.550000X0*%
%TD*%
%TA.AperFunction,ComponentPad*%
%ADD11C,1.600000*%
%TD*%
%TA.AperFunction,ComponentPad*%
%ADD12RoundRect,0.250000X0.550000X-0.550000X0.550000X0.550000X-0.550000X0.550000X-0.550000X-0.550000X0*%
%TD*%
%TA.AperFunction,ComponentPad*%
%ADD13RoundRect,0.750000X-1.750000X-1.750000X1.750000X-1.750000X1.750000X1.750000X-1.750000X1.750000X0*%
%TD*%
%TA.AperFunction,ComponentPad*%
%ADD14C,5.000000*%
%TD*%
%TA.AperFunction,ComponentPad*%
%ADD15RoundRect,0.250000X-0.500000X0.500000X-0.500000X-0.500000X0.500000X-0.500000X0.500000X0.500000X0*%
%TD*%
%TA.AperFunction,ComponentPad*%
%ADD16C,1.500000*%
%TD*%
%TA.AperFunction,ComponentPad*%
%ADD17RoundRect,0.250000X0.500000X-0.500000X0.500000X0.500000X-0.500000X0.500000X-0.500000X-0.500000X0*%
%TD*%
%TA.AperFunction,ComponentPad*%
%ADD18RoundRect,0.250000X-0.750000X-0.750000X0.750000X-0.750000X0.750000X0.750000X-0.750000X0.750000X0*%
%TD*%
%TA.AperFunction,ComponentPad*%
%ADD19C,2.000000*%
%TD*%
%TA.AperFunction,ComponentPad*%
%ADD20R,1.800000X1.800000*%
%TD*%
%TA.AperFunction,ComponentPad*%
%ADD21C,1.800000*%
%TD*%
%TA.AperFunction,Conductor*%
%ADD22C,0.889000*%
%TD*%
G04 APERTURE END LIST*
D10*
%TO.P,D4,1,K*%
%TO.N,/blinka1/Ref*%
X90805000Y-123190000D03*
D11*
%TO.P,D4,2,A*%
%TO.N,/blinka/Ref*%
X90805000Y-130810000D03*
%TD*%
D12*
%TO.P,D2,1,K*%
%TO.N,/blinka/Ref*%
X112395000Y-67310000D03*
D11*
%TO.P,D2,2,A*%
%TO.N,Net-(D1-K)*%
X112395000Y-59690000D03*
%TD*%
D10*
%TO.P,D1,1,K*%
%TO.N,Net-(D1-K)*%
X108585000Y-59690000D03*
D11*
%TO.P,D1,2,A*%
%TO.N,/blinka/Vcc*%
X108585000Y-67310000D03*
%TD*%
%TO.P,R1,1*%
%TO.N,/blinka1/Ref*%
X107949999Y-123190000D03*
%TO.P,R1,2*%
%TO.N,Net-(Q1-B)*%
X107949999Y-133350000D03*
%TD*%
D13*
%TO.P,Cell1,1,-*%
%TO.N,/blinka/GND*%
X105410000Y-95250000D03*
D14*
%TO.P,Cell1,2,+*%
%TO.N,/blinka/Vcc*%
X95410000Y-95250000D03*
%TD*%
D11*
%TO.P,R7,1*%
%TO.N,Net-(Q4-C)*%
X81280000Y-67310000D03*
%TO.P,R7,2*%
%TO.N,/blinka/GND*%
X81280000Y-57150000D03*
%TD*%
D15*
%TO.P,Q2,1,C*%
%TO.N,Net-(Q2-C)*%
X124880000Y-123190000D03*
D16*
%TO.P,Q2,2,B*%
%TO.N,Net-(Q2-B)*%
X127420000Y-125730000D03*
%TO.P,Q2,3,E*%
%TO.N,/blinka/Vcc*%
X124880000Y-128270000D03*
%TD*%
D11*
%TO.P,R6,1*%
%TO.N,Net-(Q4-B)*%
X85090000Y-67310000D03*
%TO.P,R6,2*%
%TO.N,Net-(Q3-C)*%
X85090000Y-57150000D03*
%TD*%
D10*
%TO.P,C2,1*%
%TO.N,Net-(Q2-C)*%
X81915000Y-123190002D03*
D11*
%TO.P,C2,2*%
%TO.N,Net-(Q1-B)*%
X81915000Y-125690002D03*
%TD*%
D12*
%TO.P,C4,1*%
%TO.N,Net-(D3-A)*%
X81915000Y-133310001D03*
D11*
%TO.P,C4,2*%
%TO.N,Net-(Q2-C)*%
X81915000Y-130810001D03*
%TD*%
%TO.P,R4,1*%
%TO.N,/blinka/Vcc*%
X111760000Y-123190000D03*
%TO.P,R4,2*%
%TO.N,Net-(D3-A)*%
X111760000Y-133350000D03*
%TD*%
D15*
%TO.P,Q1,1,C*%
%TO.N,Net-(Q1-C)*%
X101599999Y-123200000D03*
D16*
%TO.P,Q1,2,B*%
%TO.N,Net-(Q1-B)*%
X104139999Y-125740000D03*
%TO.P,Q1,3,E*%
%TO.N,/blinka/GND*%
X101599999Y-128280000D03*
%TD*%
D11*
%TO.P,R5,1*%
%TO.N,/blinka/Ref*%
X92710000Y-67310000D03*
%TO.P,R5,2*%
%TO.N,Net-(Q3-B)*%
X92710000Y-57150000D03*
%TD*%
D10*
%TO.P,C7,1*%
%TO.N,Net-(D6-A)*%
X118745000Y-57190000D03*
D11*
%TO.P,C7,2*%
%TO.N,Net-(Q4-C)*%
X118745000Y-59690000D03*
%TD*%
%TO.P,C6,1*%
%TO.N,Net-(Q4-B)*%
X104140000Y-62300000D03*
%TO.P,C6,2*%
%TO.N,Net-(Q3-C)*%
X104140000Y-67300000D03*
%TD*%
D17*
%TO.P,Q3,1,C*%
%TO.N,Net-(Q3-C)*%
X99060000Y-67300000D03*
D16*
%TO.P,Q3,2,B*%
%TO.N,Net-(Q3-B)*%
X96520000Y-64760000D03*
%TO.P,Q3,3,E*%
%TO.N,/blinka/GND*%
X99060000Y-62220000D03*
%TD*%
D18*
%TO.P,C1,1*%
%TO.N,/blinka/Vcc*%
X97790000Y-145415000D03*
D19*
%TO.P,C1,2*%
%TO.N,/blinka/GND*%
X102790000Y-145415000D03*
%TD*%
D11*
%TO.P,R3,1*%
%TO.N,Net-(Q2-C)*%
X119380000Y-123190000D03*
%TO.P,R3,2*%
%TO.N,/blinka/GND*%
X119380000Y-133350000D03*
%TD*%
D20*
%TO.P,D6,1,K*%
%TO.N,/blinka/GND*%
X101600000Y-55880000D03*
D21*
%TO.P,D6,2,A*%
%TO.N,Net-(D6-A)*%
X99060000Y-55880000D03*
%TD*%
D17*
%TO.P,Q4,1,C*%
%TO.N,Net-(Q4-C)*%
X75780000Y-67310000D03*
D16*
%TO.P,Q4,2,B*%
%TO.N,Net-(Q4-B)*%
X73240000Y-64770000D03*
%TO.P,Q4,3,E*%
%TO.N,/blinka/Vcc*%
X75780000Y-62230000D03*
%TD*%
D20*
%TO.P,D3,1,K*%
%TO.N,/blinka/GND*%
X99060000Y-134620000D03*
D21*
%TO.P,D3,2,A*%
%TO.N,Net-(D3-A)*%
X101600000Y-134620000D03*
%TD*%
D12*
%TO.P,C5,1*%
%TO.N,Net-(Q4-C)*%
X118745000Y-67309999D03*
D11*
%TO.P,C5,2*%
%TO.N,Net-(Q3-B)*%
X118745000Y-64809999D03*
%TD*%
%TO.P,R8,1*%
%TO.N,/blinka/Vcc*%
X88900000Y-67310000D03*
%TO.P,R8,2*%
%TO.N,Net-(D6-A)*%
X88900000Y-57150000D03*
%TD*%
%TO.P,R2,1*%
%TO.N,Net-(Q2-B)*%
X115569999Y-123190000D03*
%TO.P,R2,2*%
%TO.N,Net-(Q1-C)*%
X115569999Y-133350000D03*
%TD*%
%TO.P,C3,1*%
%TO.N,Net-(Q2-B)*%
X96520000Y-128230000D03*
%TO.P,C3,2*%
%TO.N,Net-(Q1-C)*%
X96520000Y-123230000D03*
%TD*%
D22*
%TO.N,/blinka1/Ref*%
X90805000Y-122555000D02*
X92075000Y-121285000D01*
X90805000Y-123190000D02*
X90805000Y-122555000D01*
X107315000Y-121285000D02*
X92075000Y-121285000D01*
X107950000Y-121920000D02*
X107315000Y-121285000D01*
X107950000Y-123190000D02*
X107950000Y-121920000D01*
%TO.N,Net-(Q4-C)*%
X118110000Y-70485000D02*
X81915000Y-70485000D01*
X81915000Y-70485000D02*
X81280000Y-69850000D01*
X118745000Y-69850000D02*
X118110000Y-70485000D01*
X118745000Y-67310000D02*
X118745000Y-69850000D01*
X81280000Y-69850000D02*
X81280000Y-67310000D01*
%TO.N,Net-(Q4-B)*%
X85090000Y-67310000D02*
X85090000Y-62230000D01*
X85090000Y-62230000D02*
X86995000Y-60325000D01*
X86995000Y-60325000D02*
X102155000Y-60325000D01*
X102155000Y-60325000D02*
X104140000Y-62310000D01*
%TO.N,Net-(D6-A)*%
X118745000Y-57190000D02*
X107355000Y-57190000D01*
X99695000Y-58420000D02*
X99060000Y-57785000D01*
X107315000Y-57150000D02*
X106045000Y-58420000D01*
X106045000Y-58420000D02*
X99695000Y-58420000D01*
X99060000Y-57785000D02*
X99060000Y-55880000D01*
X107355000Y-57190000D02*
X107315000Y-57150000D01*
%TO.N,/blinka/Ref*%
X92710000Y-68580000D02*
X92710000Y-67310000D01*
X112395000Y-67310000D02*
X112395000Y-67945000D01*
X112395000Y-67945000D02*
X111125000Y-69215000D01*
X111125000Y-69215000D02*
X93345000Y-69215000D01*
X93345000Y-69215000D02*
X92710000Y-68580000D01*
%TO.N,Net-(Q2-C)*%
X81915000Y-123190000D02*
X81915000Y-120650000D01*
X118745000Y-120015000D02*
X119380000Y-120650000D01*
X119380000Y-120650000D02*
X119380000Y-123190000D01*
X81915000Y-120650000D02*
X82550000Y-120015000D01*
X82550000Y-120015000D02*
X118745000Y-120015000D01*
%TO.N,Net-(Q2-B)*%
X113665000Y-130175000D02*
X98505000Y-130175000D01*
X115570000Y-123190000D02*
X115570000Y-128270000D01*
X98505000Y-130175000D02*
X96520000Y-128190000D01*
X115570000Y-128270000D02*
X113665000Y-130175000D01*
%TO.N,Net-(D3-A)*%
X100965000Y-132080000D02*
X101600000Y-132715000D01*
X93345000Y-133350000D02*
X94615000Y-132080000D01*
X94615000Y-132080000D02*
X100965000Y-132080000D01*
X93305000Y-133310000D02*
X93345000Y-133350000D01*
X101600000Y-132715000D02*
X101600000Y-134620000D01*
X81915000Y-133310000D02*
X93305000Y-133310000D01*
%TD*%
M02*
