M48
; DRILL file {KiCad 9.0.7} date 2026-02-20T13:28:05+0100
; FORMAT={-:-/ absolute / metric / decimal}
; #@! TF.CreationDate,2026-02-20T13:28:05+01:00
; #@! TF.GenerationSoftware,Kicad,Pcbnew,9.0.7
; #@! TF.FileFunction,Plated,1,2,PTH
FMAT,2
METRIC
; #@! TA.AperFunction,Plated,PTH,ComponentDrill
T1C0.800
; #@! TA.AperFunction,Plated,PTH,ComponentDrill
T2C0.900
; #@! TA.AperFunction,Plated,PTH,ComponentDrill
T3C1.000
; #@! TA.AperFunction,Plated,PTH,ComponentDrill
T4C3.000
%
G90
G05
T1
X73.24Y-64.77
X75.78Y-62.23
X75.78Y-67.31
X81.28Y-57.15
X81.28Y-67.31
X81.915Y-123.19
X81.915Y-125.69
X81.915Y-130.81
X81.915Y-133.31
X85.09Y-57.15
X85.09Y-67.31
X88.9Y-57.15
X88.9Y-67.31
X90.805Y-123.19
X90.805Y-130.81
X92.71Y-57.15
X92.71Y-67.31
X96.52Y-64.76
X96.52Y-123.23
X96.52Y-128.23
X99.06Y-62.22
X99.06Y-67.3
X101.6Y-123.2
X101.6Y-128.28
X104.14Y-125.74
X104.14Y-62.3
X104.14Y-67.3
X107.95Y-123.19
X107.95Y-133.35
X108.585Y-59.69
X108.585Y-67.31
X111.76Y-123.19
X111.76Y-133.35
X112.395Y-59.69
X112.395Y-67.31
X115.57Y-123.19
X115.57Y-133.35
X118.745Y-57.19
X118.745Y-59.69
X118.745Y-64.81
X118.745Y-67.31
X119.38Y-123.19
X119.38Y-133.35
X124.88Y-123.19
X124.88Y-128.27
X127.42Y-125.73
T2
X99.06Y-55.88
X99.06Y-134.62
X101.6Y-55.88
X101.6Y-134.62
T3
X97.79Y-145.415
X102.79Y-145.415
T4
X95.41Y-95.25
X105.41Y-95.25
M30
