%TF.GenerationSoftware,KiCad,Pcbnew,9.0.7*%
%TF.CreationDate,2026-02-20T13:28:10+01:00*%
%TF.ProjectId,hexa blinky,68657861-2062-46c6-996e-6b792e6b6963,rev?*%
%TF.SameCoordinates,Original*%
%TF.FileFunction,Soldermask,Bot*%
%TF.FilePolarity,Negative*%
%FSLAX46Y46*%
G04 Gerber Fmt 4.6, Leading zero omitted, Abs format (unit mm)*
G04 Created by KiCad (PCBNEW 9.0.7) date 2026-02-20 13:28:10*
%MOMM*%
%LPD*%
G01*
G04 APERTURE LIST*
G04 Aperture macros list*
%AMRoundRect*
0 Rectangle with rounded corners*
0 $1 Rounding radius*
0 $2 $3 $4 $5 $6 $7 $8 $9 X,Y pos of 4 corners*
0 Add a 4 corners polygon primitive as box body*
4,1,4,$2,$3,$4,$5,$6,$7,$8,$9,$2,$3,0*
0 Add four circle primitives for the rounded corners*
1,1,$1+$1,$2,$3*
1,1,$1+$1,$4,$5*
1,1,$1+$1,$6,$7*
1,1,$1+$1,$8,$9*
0 Add four rect primitives between the rounded corners*
20,1,$1+$1,$2,$3,$4,$5,0*
20,1,$1+$1,$4,$5,$6,$7,0*
20,1,$1+$1,$6,$7,$8,$9,0*
20,1,$1+$1,$8,$9,$2,$3,0*%
G04 Aperture macros list end*
%ADD10RoundRect,0.250000X-0.550000X0.550000X-0.550000X-0.550000X0.550000X-0.550000X0.550000X0.550000X0*%
%ADD11C,1.600000*%
%ADD12RoundRect,0.250000X0.550000X-0.550000X0.550000X0.550000X-0.550000X0.550000X-0.550000X-0.550000X0*%
%ADD13RoundRect,0.750000X-1.750000X-1.750000X1.750000X-1.750000X1.750000X1.750000X-1.750000X1.750000X0*%
%ADD14C,5.000000*%
%ADD15RoundRect,0.250000X-0.500000X0.500000X-0.500000X-0.500000X0.500000X-0.500000X0.500000X0.500000X0*%
%ADD16C,1.500000*%
%ADD17RoundRect,0.250000X0.500000X-0.500000X0.500000X0.500000X-0.500000X0.500000X-0.500000X-0.500000X0*%
%ADD18RoundRect,0.250000X-0.750000X-0.750000X0.750000X-0.750000X0.750000X0.750000X-0.750000X0.750000X0*%
%ADD19C,2.000000*%
%ADD20R,1.800000X1.800000*%
%ADD21C,1.800000*%
G04 APERTURE END LIST*
D10*
%TO.C,D4*%
X90805000Y-123190000D03*
D11*
X90805000Y-130810000D03*
%TD*%
D12*
%TO.C,D2*%
X112395000Y-67310000D03*
D11*
X112395000Y-59690000D03*
%TD*%
D10*
%TO.C,D1*%
X108585000Y-59690000D03*
D11*
X108585000Y-67310000D03*
%TD*%
%TO.C,R1*%
X107949999Y-123190000D03*
X107949999Y-133350000D03*
%TD*%
D13*
%TO.C,Cell1*%
X105410000Y-95250000D03*
D14*
X95410000Y-95250000D03*
%TD*%
D11*
%TO.C,R7*%
X81280000Y-67310000D03*
X81280000Y-57150000D03*
%TD*%
D15*
%TO.C,Q2*%
X124880000Y-123190000D03*
D16*
X127420000Y-125730000D03*
X124880000Y-128270000D03*
%TD*%
D11*
%TO.C,R6*%
X85090000Y-67310000D03*
X85090000Y-57150000D03*
%TD*%
D10*
%TO.C,C2*%
X81915000Y-123190002D03*
D11*
X81915000Y-125690002D03*
%TD*%
D12*
%TO.C,C4*%
X81915000Y-133310001D03*
D11*
X81915000Y-130810001D03*
%TD*%
%TO.C,R4*%
X111760000Y-123190000D03*
X111760000Y-133350000D03*
%TD*%
D15*
%TO.C,Q1*%
X101599999Y-123200000D03*
D16*
X104139999Y-125740000D03*
X101599999Y-128280000D03*
%TD*%
D11*
%TO.C,R5*%
X92710000Y-67310000D03*
X92710000Y-57150000D03*
%TD*%
D10*
%TO.C,C7*%
X118745000Y-57190000D03*
D11*
X118745000Y-59690000D03*
%TD*%
%TO.C,C6*%
X104140000Y-62300000D03*
X104140000Y-67300000D03*
%TD*%
D17*
%TO.C,Q3*%
X99060000Y-67300000D03*
D16*
X96520000Y-64760000D03*
X99060000Y-62220000D03*
%TD*%
D18*
%TO.C,C1*%
X97790000Y-145415000D03*
D19*
X102790000Y-145415000D03*
%TD*%
D11*
%TO.C,R3*%
X119380000Y-123190000D03*
X119380000Y-133350000D03*
%TD*%
D20*
%TO.C,D6*%
X101600000Y-55880000D03*
D21*
X99060000Y-55880000D03*
%TD*%
D17*
%TO.C,Q4*%
X75780000Y-67310000D03*
D16*
X73240000Y-64770000D03*
X75780000Y-62230000D03*
%TD*%
D20*
%TO.C,D3*%
X99060000Y-134620000D03*
D21*
X101600000Y-134620000D03*
%TD*%
D12*
%TO.C,C5*%
X118745000Y-67309999D03*
D11*
X118745000Y-64809999D03*
%TD*%
%TO.C,R8*%
X88900000Y-67310000D03*
X88900000Y-57150000D03*
%TD*%
%TO.C,R2*%
X115569999Y-123190000D03*
X115569999Y-133350000D03*
%TD*%
%TO.C,C3*%
X96520000Y-128230000D03*
X96520000Y-123230000D03*
%TD*%
M02*
